<?xml version="1.0" encoding="UTF-8" standalone="no"?>
<!DOCTYPE svg PUBLIC "-//W3C//DTD SVG 1.1//EN"
 "http://www.w3.org/Graphics/SVG/1.1/DTD/svg11.dtd">
<!-- Generated by graphviz version 5.0.0 (20220707.1540)
 -->
<!-- Title: dependencies Pages: 1 -->
<svg width="624pt" height="247pt"
 viewBox="0.00 0.00 624.00 246.80" xmlns="http://www.w3.org/2000/svg" xmlns:xlink="http://www.w3.org/1999/xlink">
<g id="graph0" class="graph" transform="scale(1 1) rotate(0) translate(4 242.8)">
<title>dependencies</title>
<polygon fill="white" stroke="transparent" points="-4,4 -4,-242.8 620,-242.8 620,4 -4,4"/>
<text text-anchor="middle" x="308" y="-8.2" font-family="sans-serif" font-size="14.00">dependencies</text>
<g id="clust1" class="cluster">
<title>cluster_AppModule</title>
<polygon fill="none" stroke="black" stroke-dasharray="1,5" points="8,-32.8 8,-230.8 608,-230.8 608,-32.8 8,-32.8"/>
</g>
<g id="clust2" class="cluster">
<title>cluster_AppModule_declarations</title>
<polygon fill="none" stroke="black" points="16,-40.8 16,-92.8 600,-92.8 600,-40.8 16,-40.8"/>
</g>
<g id="clust9" class="cluster">
<title>cluster_AppModule_bootstrap</title>
<polygon fill="none" stroke="black" points="267,-170.8 267,-222.8 391,-222.8 391,-170.8 267,-170.8"/>
</g>
<!-- AppComponent -->
<g id="node1" class="node">
<title>AppComponent</title>
<polygon fill="#ffffb3" stroke="black" points="591.94,-84.8 486.06,-84.8 486.06,-48.8 591.94,-48.8 591.94,-84.8"/>
<text text-anchor="middle" x="539" y="-62.6" font-family="Times,serif" font-size="14.00">AppComponent</text>
</g>
<!-- AppModule -->
<g id="node5" class="node">
<title>AppModule</title>
<polygon fill="#8dd3c7" stroke="black" points="370.66,-149.8 367.66,-153.8 346.66,-153.8 343.66,-149.8 287.34,-149.8 287.34,-113.8 370.66,-113.8 370.66,-149.8"/>
<text text-anchor="middle" x="329" y="-127.6" font-family="Times,serif" font-size="14.00">AppModule</text>
</g>
<!-- AppComponent&#45;&gt;AppModule -->
<g id="edge1" class="edge">
<title>AppComponent&#45;&gt;AppModule</title>
<path fill="none" stroke="black" d="M539,-84.91C539,-104.14 539,-131.8 539,-131.8 539,-131.8 380.74,-131.8 380.74,-131.8"/>
<polygon fill="black" stroke="black" points="380.74,-128.3 370.74,-131.8 380.74,-135.3 380.74,-128.3"/>
</g>
<!-- HeaderComponent -->
<g id="node2" class="node">
<title>HeaderComponent</title>
<polygon fill="#ffffb3" stroke="black" points="467.75,-84.8 346.25,-84.8 346.25,-48.8 467.75,-48.8 467.75,-84.8"/>
<text text-anchor="middle" x="407" y="-62.6" font-family="Times,serif" font-size="14.00">HeaderComponent</text>
</g>
<!-- HeaderComponent&#45;&gt;AppModule -->
<g id="edge2" class="edge">
<title>HeaderComponent&#45;&gt;AppModule</title>
<path fill="none" stroke="black" d="M358.48,-84.91C358.48,-84.91 358.48,-103.79 358.48,-103.79"/>
<polygon fill="black" stroke="black" points="354.98,-103.79 358.48,-113.79 361.98,-103.79 354.98,-103.79"/>
</g>
<!-- TreeColumnComponent -->
<g id="node3" class="node">
<title>TreeColumnComponent</title>
<polygon fill="#ffffb3" stroke="black" points="328.09,-84.8 175.91,-84.8 175.91,-48.8 328.09,-48.8 328.09,-84.8"/>
<text text-anchor="middle" x="252" y="-62.6" font-family="Times,serif" font-size="14.00">TreeColumnComponent</text>
</g>
<!-- TreeColumnComponent&#45;&gt;AppModule -->
<g id="edge3" class="edge">
<title>TreeColumnComponent&#45;&gt;AppModule</title>
<path fill="none" stroke="black" d="M307.61,-84.91C307.61,-84.91 307.61,-103.79 307.61,-103.79"/>
<polygon fill="black" stroke="black" points="304.11,-103.79 307.61,-113.79 311.11,-103.79 304.11,-103.79"/>
</g>
<!-- ViewportComponent -->
<g id="node4" class="node">
<title>ViewportComponent</title>
<polygon fill="#ffffb3" stroke="black" points="158.21,-84.8 23.79,-84.8 23.79,-48.8 158.21,-48.8 158.21,-84.8"/>
<text text-anchor="middle" x="91" y="-62.6" font-family="Times,serif" font-size="14.00">ViewportComponent</text>
</g>
<!-- ViewportComponent&#45;&gt;AppModule -->
<g id="edge4" class="edge">
<title>ViewportComponent&#45;&gt;AppModule</title>
<path fill="none" stroke="black" d="M91,-84.91C91,-104.14 91,-131.8 91,-131.8 91,-131.8 277.27,-131.8 277.27,-131.8"/>
<polygon fill="black" stroke="black" points="277.27,-135.3 287.27,-131.8 277.27,-128.3 277.27,-135.3"/>
</g>
<!-- AppComponent  -->
<g id="node6" class="node">
<title>AppComponent </title>
<polygon fill="#80b1d3" stroke="black" points="383.44,-214.8 274.56,-214.8 274.56,-178.8 383.44,-178.8 383.44,-214.8"/>
<text text-anchor="middle" x="329" y="-192.6" font-family="Times,serif" font-size="14.00">AppComponent </text>
</g>
<!-- AppModule&#45;&gt;AppComponent  -->
<g id="edge5" class="edge">
<title>AppModule&#45;&gt;AppComponent </title>
<path fill="none" stroke="black" stroke-dasharray="1,5" d="M329,-149.91C329,-149.91 329,-168.79 329,-168.79"/>
<polygon fill="black" stroke="black" points="325.5,-168.79 329,-178.79 332.5,-168.79 325.5,-168.79"/>
</g>
</g>
</svg>
