<?xml version="1.0" encoding="UTF-8" standalone="no"?>
<!DOCTYPE svg PUBLIC "-//W3C//DTD SVG 1.1//EN"
 "http://www.w3.org/Graphics/SVG/1.1/DTD/svg11.dtd">
<!-- Generated by graphviz version 5.0.0 (20220707.1540)
 -->
<!-- Title: dependencies Pages: 1 -->
<svg width="914pt" height="247pt"
 viewBox="0.00 0.00 914.00 246.80" xmlns="http://www.w3.org/2000/svg" xmlns:xlink="http://www.w3.org/1999/xlink">
<g id="graph0" class="graph" transform="scale(1 1) rotate(0) translate(4 242.8)">
<title>dependencies</title>
<polygon fill="white" stroke="transparent" points="-4,4 -4,-242.8 910,-242.8 910,4 -4,4"/>
<text text-anchor="middle" x="453" y="-8.2" font-family="sans-serif" font-size="14.00">dependencies</text>
<g id="clust1" class="cluster">
<title>cluster_AppModule</title>
<polygon fill="none" stroke="black" stroke-dasharray="1,5" points="8,-32.8 8,-230.8 898,-230.8 898,-32.8 8,-32.8"/>
</g>
<g id="clust2" class="cluster">
<title>cluster_AppModule_declarations</title>
<polygon fill="none" stroke="black" points="16,-40.8 16,-92.8 890,-92.8 890,-40.8 16,-40.8"/>
</g>
<g id="clust11" class="cluster">
<title>cluster_AppModule_bootstrap</title>
<polygon fill="none" stroke="black" points="372,-170.8 372,-222.8 496,-222.8 496,-170.8 372,-170.8"/>
</g>
<!-- AppComponent -->
<g id="node1" class="node">
<title>AppComponent</title>
<polygon fill="#ffffb3" stroke="black" points="881.94,-84.8 776.06,-84.8 776.06,-48.8 881.94,-48.8 881.94,-84.8"/>
<text text-anchor="middle" x="829" y="-62.6" font-family="Times,serif" font-size="14.00">AppComponent</text>
</g>
<!-- AppModule -->
<g id="node7" class="node">
<title>AppModule</title>
<polygon fill="#8dd3c7" stroke="black" points="475.66,-149.8 472.66,-153.8 451.66,-153.8 448.66,-149.8 392.34,-149.8 392.34,-113.8 475.66,-113.8 475.66,-149.8"/>
<text text-anchor="middle" x="434" y="-127.6" font-family="Times,serif" font-size="14.00">AppModule</text>
</g>
<!-- AppComponent&#45;&gt;AppModule -->
<g id="edge1" class="edge">
<title>AppComponent&#45;&gt;AppModule</title>
<path fill="none" stroke="black" d="M829,-85.08C829,-106.12 829,-137.8 829,-137.8 829,-137.8 485.9,-137.8 485.9,-137.8"/>
<polygon fill="black" stroke="black" points="485.9,-134.3 475.9,-137.8 485.9,-141.3 485.9,-134.3"/>
</g>
<!-- CytoscapeGraphComponent -->
<g id="node2" class="node">
<title>CytoscapeGraphComponent</title>
<polygon fill="#ffffb3" stroke="black" points="758.14,-84.8 583.86,-84.8 583.86,-48.8 758.14,-48.8 758.14,-84.8"/>
<text text-anchor="middle" x="671" y="-62.6" font-family="Times,serif" font-size="14.00">CytoscapeGraphComponent</text>
</g>
<!-- CytoscapeGraphComponent&#45;&gt;AppModule -->
<g id="edge2" class="edge">
<title>CytoscapeGraphComponent&#45;&gt;AppModule</title>
<path fill="none" stroke="black" d="M671,-84.82C671,-102.17 671,-125.8 671,-125.8 671,-125.8 485.83,-125.8 485.83,-125.8"/>
<polygon fill="black" stroke="black" points="485.83,-122.3 475.83,-125.8 485.83,-129.3 485.83,-122.3"/>
</g>
<!-- HeaderComponent -->
<g id="node3" class="node">
<title>HeaderComponent</title>
<polygon fill="#ffffb3" stroke="black" points="565.75,-84.8 444.25,-84.8 444.25,-48.8 565.75,-48.8 565.75,-84.8"/>
<text text-anchor="middle" x="505" y="-62.6" font-family="Times,serif" font-size="14.00">HeaderComponent</text>
</g>
<!-- HeaderComponent&#45;&gt;AppModule -->
<g id="edge3" class="edge">
<title>HeaderComponent&#45;&gt;AppModule</title>
<path fill="none" stroke="black" d="M459.98,-84.91C459.98,-84.91 459.98,-103.79 459.98,-103.79"/>
<polygon fill="black" stroke="black" points="456.48,-103.79 459.98,-113.79 463.48,-103.79 456.48,-103.79"/>
</g>
<!-- SidebarComponent -->
<g id="node4" class="node">
<title>SidebarComponent</title>
<polygon fill="#ffffb3" stroke="black" points="426.1,-84.8 301.9,-84.8 301.9,-48.8 426.1,-48.8 426.1,-84.8"/>
<text text-anchor="middle" x="364" y="-62.6" font-family="Times,serif" font-size="14.00">SidebarComponent</text>
</g>
<!-- SidebarComponent&#45;&gt;AppModule -->
<g id="edge4" class="edge">
<title>SidebarComponent&#45;&gt;AppModule</title>
<path fill="none" stroke="black" d="M409.11,-84.91C409.11,-84.91 409.11,-103.79 409.11,-103.79"/>
<polygon fill="black" stroke="black" points="405.61,-103.79 409.11,-113.79 412.61,-103.79 405.61,-103.79"/>
</g>
<!-- TreeComponent -->
<g id="node5" class="node">
<title>TreeComponent</title>
<polygon fill="#ffffb3" stroke="black" points="283.47,-84.8 176.53,-84.8 176.53,-48.8 283.47,-48.8 283.47,-84.8"/>
<text text-anchor="middle" x="230" y="-62.6" font-family="Times,serif" font-size="14.00">TreeComponent</text>
</g>
<!-- TreeComponent&#45;&gt;AppModule -->
<g id="edge5" class="edge">
<title>TreeComponent&#45;&gt;AppModule</title>
<path fill="none" stroke="black" d="M230,-84.82C230,-102.17 230,-125.8 230,-125.8 230,-125.8 382.23,-125.8 382.23,-125.8"/>
<polygon fill="black" stroke="black" points="382.23,-129.3 392.23,-125.8 382.23,-122.3 382.23,-129.3"/>
</g>
<!-- ViewportComponent -->
<g id="node6" class="node">
<title>ViewportComponent</title>
<polygon fill="#ffffb3" stroke="black" points="158.21,-84.8 23.79,-84.8 23.79,-48.8 158.21,-48.8 158.21,-84.8"/>
<text text-anchor="middle" x="91" y="-62.6" font-family="Times,serif" font-size="14.00">ViewportComponent</text>
</g>
<!-- ViewportComponent&#45;&gt;AppModule -->
<g id="edge6" class="edge">
<title>ViewportComponent&#45;&gt;AppModule</title>
<path fill="none" stroke="black" d="M91,-85.08C91,-106.12 91,-137.8 91,-137.8 91,-137.8 382.28,-137.8 382.28,-137.8"/>
<polygon fill="black" stroke="black" points="382.28,-141.3 392.28,-137.8 382.28,-134.3 382.28,-141.3"/>
</g>
<!-- AppComponent  -->
<g id="node8" class="node">
<title>AppComponent </title>
<polygon fill="#80b1d3" stroke="black" points="488.44,-214.8 379.56,-214.8 379.56,-178.8 488.44,-178.8 488.44,-214.8"/>
<text text-anchor="middle" x="434" y="-192.6" font-family="Times,serif" font-size="14.00">AppComponent </text>
</g>
<!-- AppModule&#45;&gt;AppComponent  -->
<g id="edge7" class="edge">
<title>AppModule&#45;&gt;AppComponent </title>
<path fill="none" stroke="black" stroke-dasharray="1,5" d="M434,-149.91C434,-149.91 434,-168.79 434,-168.79"/>
<polygon fill="black" stroke="black" points="430.5,-168.79 434,-178.79 437.5,-168.79 430.5,-168.79"/>
</g>
</g>
</svg>
